Coordinates
version=1
nRows=17
nColumns=40
inDegrees=yes

Units are S.I. units (second, meters, Newtons, ...)
Angles are in degrees.

endheader
time	pelvis_tilt	pelvis_list	pelvis_rotation	pelvis_tx	pelvis_ty	pelvis_tz	hip_flexion_r	hip_adduction_r	hip_rotation_r	knee_angle_r	knee_angle_r_beta	ankle_angle_r	subtalar_angle_r	mtp_angle_r	hip_flexion_l	hip_adduction_l	hip_rotation_l	knee_angle_l	knee_angle_l_beta	ankle_angle_l	subtalar_angle_l	mtp_angle_l	lumbar_extension	lumbar_bending	lumbar_rotation	arm_flex_r	arm_add_r	arm_rot_r	elbow_flex_r	pro_sup_r	wrist_flex_r	wrist_dev_r	arm_flex_l	arm_add_l	arm_rot_l	elbow_flex_l	pro_sup_l	wrist_flex_l	wrist_dev_l
     27.90000000	     -4.81997866	     -4.56962978	      1.27711746	      0.77209613	      0.93012358	      0.52811007	     14.65316420	      3.46237603	    -13.44029224	     17.03164538	     17.03164538	      9.71208668	      4.36376417	     -2.85047058	     34.08503513	    -12.27245043	     -1.36239173	     51.53715257	     51.53715257	     11.26029233	    -19.13368911	     18.93635661	    -11.66670038	      8.12714539	      2.77728715	     22.49710705	    -16.96966888	    -10.89249436	     56.67375604	     45.91997612	      0.00000000	      0.00000000	     -1.91330391	    -10.43496641	     -7.34684549	     45.12632931	     46.32587098	      0.00000000	      0.00000000
     27.91371429	     -4.79736302	     -4.57051179	      1.62992209	      0.76963635	      0.93033221	      0.52828442	     14.22579066	      3.45581624	    -13.69347273	     16.92794889	     16.92794889	      9.97807449	      4.36216547	     -2.89431951	     34.46148230	    -12.22893567	     -1.65792147	     47.92030434	     47.92030434	     11.56116984	    -19.01654256	     18.73867514	    -11.68141619	      8.22790389	      2.81869966	     23.83468434	    -17.17817717	    -10.91660291	     57.76351249	     45.88566182	      0.00000000	      0.00000000	     -2.52323214	    -10.42319683	     -7.39864562	     44.81195320	     46.32309052	      0.00000000	      0.00000000
     27.92742857	     -4.71223038	     -4.62317781	      1.97946040	      0.76732552	      0.93043879	      0.52836545	     13.77300599	      3.42402724	    -14.28787066	     16.96779352	     16.96779352	     10.45946522	      4.96540665	     -2.68513991	     34.35889756	    -12.21588286	     -2.09514466	     43.62486527	     43.62486527	     10.35188252	    -18.89599547	     14.84350716	    -11.80011515	      8.45738390	      3.01510558	     24.62192433	    -17.75813683	    -10.36468987	     60.39487526	     45.75608160	      0.00000000	      0.00000000	     -2.93039673	    -10.17595854	     -8.15638886	     44.15801251	     46.40028248	      0.00000000	      0.00000000
     27.94114286	     -4.72192166	     -4.62866703	      2.27288441	      0.76498291	      0.93041611	      0.52838797	     13.41289700	      3.42543297	    -14.45828482	     16.92167682	     16.92167682	     10.75576989	      4.92934170	     -2.76249588	     34.25388079	    -11.97006426	     -2.25969417	     39.37217063	     39.37217063	     10.33725641	    -18.56052847	     15.07259656	    -11.72810570	      8.59834074	      3.10018532	     25.98720837	    -17.94013504	    -10.44308956	     61.27440132	     45.73335086	      0.00000000	      0.00000000	     -3.52514992	    -10.15600974	     -8.14197443	     43.76378070	     46.38904068	      0.00000000	      0.00000000
     27.95485714	     -4.59402632	     -4.68194061	      2.56075930	      0.76287447	      0.93040796	      0.52822522	     12.94794952	      3.38643429	    -15.00539481	     17.03288755	     17.03288755	     11.28996773	      5.54144198	     -2.50987213	     33.68014752	    -11.77007234	     -2.49370569	     34.76820008	     34.76820008	      8.75799047	    -18.22096560	     11.73749831	    -11.85629256	      8.86043278	      3.18235780	     26.97665149	    -18.23611177	    -10.09465506	     63.37437664	     45.63826123	      0.00000000	      0.00000000	     -3.89795575	    -10.01014110	     -8.57405027	     42.77830334	     46.42463693	      0.00000000	      0.00000000
     27.96857143	     -4.54521938	     -4.68484877	      2.78000177	      0.76076154	      0.93021189	      0.52799896	     12.58258157	      3.36809426	    -15.12911920	     17.10867931	     17.10867931	     11.63446871	      5.50795067	     -2.65145460	     33.29081990	    -11.48994293	     -2.57909231	     30.77364657	     30.77364657	      8.61093374	    -17.21210300	     12.30101428	    -11.85355174	      9.02461377	      3.28504454	     28.25715384	    -18.29877990	    -10.13006200	     64.25446106	     45.61427722	      0.00000000	      0.00000000	     -4.50522349	     -9.95691487	     -8.53794403	     42.43746894	     46.41084952	      0.00000000	      0.00000000
     27.98228571	     -4.38363965	     -4.71233175	      2.98554409	      0.75878167	      0.93006575	      0.52761683	     12.11005609	      3.33951094	    -15.39505007	     17.24388962	     17.24388962	     12.03470174	      5.74923150	     -2.79246506	     32.79067799	    -11.23939176	     -2.55509774	     27.19909769	     27.19909769	      8.30538876	    -16.06250551	     12.66693233	    -11.96067719	      9.24970170	      3.16617616	     29.49663065	    -18.12759976	     -9.99226149	     65.61375501	     45.56666051	      0.00000000	      0.00000000	     -5.17304354	     -9.96024312	     -8.52085380	     41.92335013	     46.39729879	      0.00000000	      0.00000000
     27.99600000	     -4.28863306	     -4.71622386	      3.14683202	      0.75685984	      0.92983656	      0.52711135	     11.70952562	      3.29485992	    -15.55630229	     17.37230448	     17.37230448	     12.40770160	      5.88247940	     -2.90361307	     32.44157699	    -11.04906766	     -2.70563292	     24.22987934	     24.22987934	      8.07371569	    -14.53075320	     13.05914906	    -11.98441045	      9.46443001	      3.16728278	     30.57842572	    -18.00911770	     -9.82929798	     66.88322454	     45.52134664	      0.00000000	      0.00000000	     -5.76546588	     -9.88877548	     -8.49091403	     41.48855608	     46.38344084	      0.00000000	      0.00000000
     28.00971429	     -4.17515681	     -4.69002159	      3.25093361	      0.75504555	      0.92961265	      0.52657760	     11.25745866	      3.23832839	    -15.64721906	     17.45752222	     17.45752222	     12.84204578	      5.99035742	     -3.00269439	     32.17554857	    -10.89011467	     -2.89629612	     21.95535718	     21.95535718	      7.92874305	    -13.03239074	     13.40949720	    -12.01057402	      9.58304050	      3.13756459	     31.54483387	    -17.72776491	     -9.60861310	     68.26387692	     45.47022253	      0.00000000	      0.00000000	     -6.36904152	     -9.85098357	     -8.44448448	     41.01224354	     46.36784957	      0.00000000	      0.00000000
     28.02342857	     -4.16346430	     -4.76350760	      3.35489070	      0.75313648	      0.92920850	      0.52590657	     10.93619337	      3.28623496	    -15.70322470	     17.54687452	     17.54687452	     13.21363763	      5.98059865	     -3.11616372	     32.27076409	    -10.82331061	     -2.89565278	     20.54749990	     20.54749990	      7.73001087	    -11.91251321	     13.65436784	    -11.90969270	      9.84756005	      3.28922844	     32.50087731	    -17.60402710	     -9.52291398	     69.22245136	     45.43886833	      0.00000000	      0.00000000	     -6.87912506	     -9.72411276	     -8.38605451	     40.69066386	     46.35260628	      0.00000000	      0.00000000
     28.03714286	     -3.98674642	     -4.60817188	      3.38544078	      0.75146403	      0.92933693	      0.52522470	     10.31380871	      3.12752690	    -15.64533482	     17.46687209	     17.46687209	     13.59939719	      6.11127606	     -3.08407815	     32.09207568	    -10.65566125	     -3.30851688	     19.59275954	     19.59275954	      7.60174328	    -10.55497632	     13.67877150	    -12.04952636	      9.82296656	      2.94392046	     33.17893397	    -16.85534405	     -9.07695801	     71.45064937	     45.35103775	      0.00000000	      0.00000000	     -7.55412867	     -9.73303576	     -8.26236840	     39.98097076	     46.32598916	      0.00000000	      0.00000000
     28.05085714	     -3.91761457	     -4.53521722	      3.40828681	      0.74973261	      0.92930008	      0.52444652	      9.82265991	      3.05330360	    -15.55017191	     17.38998747	     17.38998747	     13.94188654	      6.14088554	     -3.07409591	     32.16171981	    -10.53696425	     -3.44514866	     19.29830335	     19.29830335	      7.36841804	     -9.78486831	     13.57465077	    -12.04503010	      9.88180379	      2.91017394	     33.78152372	    -16.34385649	     -8.79926892	     73.09994245	     45.28951584	      0.00000000	      0.00000000	     -8.01265793	     -9.63551201	     -8.14164392	     39.48995892	     46.30404804	      0.00000000	      0.00000000
     28.06457143	     -3.86163440	     -4.48285574	      3.36275587	      0.74815625	      0.92924620	      0.52369030	      9.28022094	      3.02826958	    -15.38874874	     17.20999767	     17.20999767	     14.33080046	      6.18988964	     -2.84040743	     32.29456871	    -10.49871986	     -3.62840499	     19.56443336	     19.56443336	      6.87136893	     -9.26359579	     12.46260960	    -12.05529552	      9.93869478	      3.51541732	     33.33488137	    -16.57016447	     -8.58422698	     76.54259157	     45.17816070	      0.00000000	      0.00000000	     -8.02831750	     -9.55528266	     -7.69707239	     38.63672090	     46.24823341	      0.00000000	      0.00000000
     28.07828571	     -3.80610303	     -4.40614962	      3.30326672	      0.74666216	      0.92924572	      0.52283018	      8.69689846	      2.97169193	    -15.24533437	     16.95946396	     16.95946396	     14.62555778	      6.28819557	     -2.82917966	     32.37244354	    -10.39165083	     -3.56394195	     20.17066880	     20.17066880	      6.59736681	     -9.16064809	     12.11862149	    -11.99872496	      9.93979065	      3.36746864	     33.87160823	    -15.75575833	     -8.44211987	     77.93437040	     45.13265729	      0.00000000	      0.00000000	     -8.58073539	     -9.48899999	     -7.48593714	     38.11750908	     46.21423466	      0.00000000	      0.00000000
     28.09200000	     -3.72435924	     -4.35591963	      3.19914289	      0.74534982	      0.92922931	      0.52195709	      8.06247387	      2.94319778	    -15.07907195	     16.69090219	     16.69090219	     14.92715381	      6.43609495	     -2.82772545	     32.36358911	    -10.31847283	     -3.44301001	     21.06330880	     21.06330880	      6.35046871	     -9.21855130	     11.74632466	    -11.95738379	      9.93901682	      3.35942769	     34.23383443	    -15.11112877	     -8.21940816	     79.29932252	     45.08418557	      0.00000000	      0.00000000	     -9.05499967	     -9.41335584	     -7.34363902	     37.72473783	     46.18961383	      0.00000000	      0.00000000
     28.10571429	     -3.66901712	     -4.33141852	      3.02370130	      0.74426535	      0.92913762	      0.52106337	      7.39249203	      2.94625143	    -14.90209866	     16.32306394	     16.32306394	     15.19884561	      6.67516428	     -2.77590724	     32.17227310	    -10.28576087	     -3.39771504	     21.90313273	     21.90313273	      5.81763834	     -9.32033807	     10.54443060	    -11.92286906	      9.95625383	      3.95403001	     33.66412636	    -15.14679971	     -8.08043889	     82.54577666	     44.99517433	      0.00000000	      0.00000000	     -9.19503632	     -9.33152062	     -6.73742398	     37.16015261	     46.11412041	      0.00000000	      0.00000000
     28.11942857	     -3.60138311	     -4.36222884	      2.84193984	      0.74333592	      0.92893898	      0.52011688	      6.70724283	      2.99572464	    -14.74636626	     15.97126221	     15.97126221	     15.49092049	      6.97387707	     -2.76874907	     31.91096782	    -10.25845875	     -3.16210018	     22.89437511	     22.89437511	      5.68378164	     -9.52418733	     10.36414464	    -11.81031111	      9.98955377	      3.86831552	     33.96900288	    -14.38871394	     -7.81973214	     83.73525564	     44.95262608	      0.00000000	      0.00000000	     -9.71516435	     -9.25488591	     -6.58908604	     36.81051228	     46.08836116	      0.00000000	      0.00000000
